<svg xmlns="http://www.w3.org/2000/svg" viewBox="0 0 800 800" width="800" height="800">
  <defs>
    <radialGradient id="ns-bg" cx="50%" cy="45%" r="75%">
      <stop offset="0%" stop-color="#0a1a0a"/>
      <stop offset="45%" stop-color="#061206"/>
      <stop offset="100%" stop-color="#020802"/>
    </radialGradient>
    <radialGradient id="ns-nebula1" cx="35%" cy="40%" r="50%">
      <stop offset="0%" stop-color="#33691e" stop-opacity="0.2"/>
      <stop offset="50%" stop-color="#1b5e20" stop-opacity="0.08"/>
      <stop offset="100%" stop-color="transparent" stop-opacity="0"/>
    </radialGradient>
    <radialGradient id="ns-nebula2" cx="65%" cy="50%" r="45%">
      <stop offset="0%" stop-color="#76ff03" stop-opacity="0.1"/>
      <stop offset="50%" stop-color="#64dd17" stop-opacity="0.04"/>
      <stop offset="100%" stop-color="transparent" stop-opacity="0"/>
    </radialGradient>
    <radialGradient id="ns-nebula3" cx="50%" cy="35%" r="30%">
      <stop offset="0%" stop-color="#aed581" stop-opacity="0.1"/>
      <stop offset="100%" stop-color="transparent" stop-opacity="0"/>
    </radialGradient>
    <radialGradient id="ns-nodeGlow" cx="50%" cy="50%" r="50%">
      <stop offset="0%" stop-color="#b2ff59" stop-opacity="0.8"/>
      <stop offset="40%" stop-color="#76ff03" stop-opacity="0.3"/>
      <stop offset="100%" stop-color="transparent" stop-opacity="0"/>
    </radialGradient>
    <filter id="ns-blur1">
      <feGaussianBlur stdDeviation="25"/>
    </filter>
    <filter id="ns-blur2">
      <feGaussianBlur stdDeviation="12"/>
    </filter>
    <filter id="ns-blur3">
      <feGaussianBlur stdDeviation="5"/>
    </filter>
    <filter id="ns-glow">
      <feGaussianBlur stdDeviation="3" result="blur"/>
      <feMerge>
        <feMergeNode in="blur"/>
        <feMergeNode in="SourceGraphic"/>
      </feMerge>
    </filter>
  </defs>

  <!-- Background -->
  <rect width="800" height="800" fill="url(#ns-bg)"/>

  <!-- Nebula glows -->
  <ellipse cx="300" cy="310" rx="270" ry="210" fill="url(#ns-nebula1)" filter="url(#ns-blur1)"/>
  <ellipse cx="520" cy="390" rx="230" ry="180" fill="url(#ns-nebula2)" filter="url(#ns-blur1)"/>
  <ellipse cx="400" cy="290" rx="180" ry="130" fill="url(#ns-nebula3)" filter="url(#ns-blur1)"/>

  <!-- Stars field -->
  <circle cx="92" cy="62" r="1.2" fill="#ffffff" opacity="0.65"/>
  <circle cx="228" cy="45" r="0.8" fill="#ccff90" opacity="0.6"/>
  <circle cx="368" cy="75" r="1.4" fill="#ffffff" opacity="0.75"/>
  <circle cx="532" cy="58" r="1" fill="#b2ff59" opacity="0.6"/>
  <circle cx="655" cy="95" r="1.3" fill="#ffffff" opacity="0.6"/>
  <circle cx="712" cy="38" r="0.9" fill="#ccff90" opacity="0.5"/>
  <circle cx="75" cy="208" r="1.1" fill="#ffffff" opacity="0.55"/>
  <circle cx="735" cy="228" r="1" fill="#ffffff" opacity="0.5"/>
  <circle cx="52" cy="372" r="0.9" fill="#ccff90" opacity="0.5"/>
  <circle cx="755" cy="348" r="1.1" fill="#ffffff" opacity="0.55"/>
  <circle cx="135" cy="145" r="1.5" fill="#ffffff" opacity="0.75"/>
  <circle cx="665" cy="155" r="0.7" fill="#b2ff59" opacity="0.55"/>
  <circle cx="175" cy="455" r="1" fill="#ffffff" opacity="0.5"/>
  <circle cx="628" cy="465" r="1.2" fill="#ccff90" opacity="0.55"/>
  <circle cx="482" cy="108" r="0.8" fill="#ffffff" opacity="0.65"/>
  <circle cx="315" cy="502" r="1.1" fill="#ffffff" opacity="0.45"/>
  <circle cx="565" cy="742" r="0.7" fill="#ffffff" opacity="0.45"/>
  <circle cx="218" cy="718" r="0.9" fill="#ccff90" opacity="0.4"/>
  <circle cx="448" cy="768" r="0.6" fill="#ffffff" opacity="0.5"/>

  <!-- Digital grid background -->
  <line x1="100" y1="0" x2="100" y2="800" stroke="#33691e" stroke-width="0.3" opacity="0.05"/>
  <line x1="200" y1="0" x2="200" y2="800" stroke="#33691e" stroke-width="0.3" opacity="0.05"/>
  <line x1="300" y1="0" x2="300" y2="800" stroke="#33691e" stroke-width="0.3" opacity="0.05"/>
  <line x1="400" y1="0" x2="400" y2="800" stroke="#33691e" stroke-width="0.3" opacity="0.06"/>
  <line x1="500" y1="0" x2="500" y2="800" stroke="#33691e" stroke-width="0.3" opacity="0.05"/>
  <line x1="600" y1="0" x2="600" y2="800" stroke="#33691e" stroke-width="0.3" opacity="0.05"/>
  <line x1="700" y1="0" x2="700" y2="800" stroke="#33691e" stroke-width="0.3" opacity="0.05"/>
  <line x1="0" y1="100" x2="800" y2="100" stroke="#33691e" stroke-width="0.3" opacity="0.05"/>
  <line x1="0" y1="200" x2="800" y2="200" stroke="#33691e" stroke-width="0.3" opacity="0.05"/>
  <line x1="0" y1="300" x2="800" y2="300" stroke="#33691e" stroke-width="0.3" opacity="0.05"/>
  <line x1="0" y1="400" x2="800" y2="400" stroke="#33691e" stroke-width="0.3" opacity="0.06"/>
  <line x1="0" y1="500" x2="800" y2="500" stroke="#33691e" stroke-width="0.3" opacity="0.05"/>

  <!-- Neural network connections -->
  <line x1="400" y1="300" x2="280" y2="220" stroke="#76ff03" stroke-width="0.6" opacity="0.2"/>
  <line x1="400" y1="300" x2="520" y2="230" stroke="#76ff03" stroke-width="0.6" opacity="0.2"/>
  <line x1="400" y1="300" x2="340" y2="400" stroke="#64dd17" stroke-width="0.5" opacity="0.18"/>
  <line x1="400" y1="300" x2="480" y2="390" stroke="#64dd17" stroke-width="0.5" opacity="0.18"/>
  <line x1="400" y1="300" x2="250" y2="330" stroke="#76ff03" stroke-width="0.4" opacity="0.15"/>
  <line x1="400" y1="300" x2="560" y2="310" stroke="#76ff03" stroke-width="0.4" opacity="0.15"/>
  <line x1="280" y1="220" x2="180" y2="180" stroke="#aed581" stroke-width="0.4" opacity="0.12"/>
  <line x1="280" y1="220" x2="220" y2="310" stroke="#aed581" stroke-width="0.3" opacity="0.1"/>
  <line x1="520" y1="230" x2="620" y2="190" stroke="#aed581" stroke-width="0.4" opacity="0.12"/>
  <line x1="520" y1="230" x2="590" y2="320" stroke="#aed581" stroke-width="0.3" opacity="0.1"/>
  <line x1="340" y1="400" x2="250" y2="450" stroke="#aed581" stroke-width="0.3" opacity="0.1"/>
  <line x1="480" y1="390" x2="570" y2="440" stroke="#aed581" stroke-width="0.3" opacity="0.1"/>
  <line x1="280" y1="220" x2="340" y2="150" stroke="#aed581" stroke-width="0.3" opacity="0.1"/>
  <line x1="520" y1="230" x2="480" y2="150" stroke="#aed581" stroke-width="0.3" opacity="0.1"/>
  <line x1="250" y1="330" x2="170" y2="360" stroke="#aed581" stroke-width="0.3" opacity="0.08"/>
  <line x1="560" y1="310" x2="640" y2="350" stroke="#aed581" stroke-width="0.3" opacity="0.08"/>

  <!-- Central node -->
  <circle cx="400" cy="300" r="12" fill="#76ff03" opacity="0.08" filter="url(#ns-blur2)"/>
  <circle cx="400" cy="300" r="6" fill="#b2ff59" opacity="0.2" filter="url(#ns-blur3)"/>
  <circle cx="400" cy="300" r="3" fill="#ccff90" opacity="0.5"/>

  <!-- Primary nodes -->
  <circle cx="280" cy="220" r="8" fill="#76ff03" opacity="0.06" filter="url(#ns-blur3)"/>
  <circle cx="280" cy="220" r="4" fill="#aed581" opacity="0.3" filter="url(#ns-blur3)"/>
  <circle cx="280" cy="220" r="2" fill="#ccff90" opacity="0.5"/>

  <circle cx="520" cy="230" r="8" fill="#76ff03" opacity="0.06" filter="url(#ns-blur3)"/>
  <circle cx="520" cy="230" r="4" fill="#aed581" opacity="0.3" filter="url(#ns-blur3)"/>
  <circle cx="520" cy="230" r="2" fill="#ccff90" opacity="0.5"/>

  <circle cx="340" cy="400" r="7" fill="#76ff03" opacity="0.05" filter="url(#ns-blur3)"/>
  <circle cx="340" cy="400" r="3.5" fill="#aed581" opacity="0.25" filter="url(#ns-blur3)"/>
  <circle cx="340" cy="400" r="1.8" fill="#ccff90" opacity="0.45"/>

  <circle cx="480" cy="390" r="7" fill="#76ff03" opacity="0.05" filter="url(#ns-blur3)"/>
  <circle cx="480" cy="390" r="3.5" fill="#aed581" opacity="0.25" filter="url(#ns-blur3)"/>
  <circle cx="480" cy="390" r="1.8" fill="#ccff90" opacity="0.45"/>

  <circle cx="250" cy="330" r="6" fill="#76ff03" opacity="0.04" filter="url(#ns-blur3)"/>
  <circle cx="250" cy="330" r="3" fill="#aed581" opacity="0.2"/>
  <circle cx="250" cy="330" r="1.5" fill="#ccff90" opacity="0.4"/>

  <circle cx="560" cy="310" r="6" fill="#76ff03" opacity="0.04" filter="url(#ns-blur3)"/>
  <circle cx="560" cy="310" r="3" fill="#aed581" opacity="0.2"/>
  <circle cx="560" cy="310" r="1.5" fill="#ccff90" opacity="0.4"/>

  <!-- Secondary nodes -->
  <circle cx="180" cy="180" r="2" fill="#aed581" opacity="0.3"/>
  <circle cx="620" cy="190" r="2" fill="#aed581" opacity="0.3"/>
  <circle cx="220" cy="310" r="1.5" fill="#aed581" opacity="0.25"/>
  <circle cx="590" cy="320" r="1.5" fill="#aed581" opacity="0.25"/>
  <circle cx="250" cy="450" r="1.8" fill="#aed581" opacity="0.25"/>
  <circle cx="570" cy="440" r="1.8" fill="#aed581" opacity="0.25"/>
  <circle cx="340" cy="150" r="1.5" fill="#aed581" opacity="0.25"/>
  <circle cx="480" cy="150" r="1.5" fill="#aed581" opacity="0.25"/>
  <circle cx="170" cy="360" r="1.2" fill="#aed581" opacity="0.2"/>
  <circle cx="640" cy="350" r="1.2" fill="#aed581" opacity="0.2"/>

  <!-- Brainwave sine patterns -->
  <path d="M80 460 Q120 440, 160 460 Q200 480, 240 460 Q280 440, 320 460 Q360 480, 400 460 Q440 440, 480 460 Q520 480, 560 460 Q600 440, 640 460 Q680 480, 720 460" stroke="#76ff03" stroke-width="1" fill="none" opacity="0.2" filter="url(#ns-glow)"/>
  <path d="M80 490 Q140 470, 200 490 Q260 510, 320 490 Q380 470, 440 490 Q500 510, 560 490 Q620 470, 680 490 Q720 505, 720 490" stroke="#64dd17" stroke-width="0.8" fill="none" opacity="0.15"/>
  <path d="M80 510 Q160 495, 240 510 Q320 525, 400 510 Q480 495, 560 510 Q640 525, 720 510" stroke="#aed581" stroke-width="0.6" fill="none" opacity="0.1"/>

  <!-- Synaptic dots along waves -->
  <circle cx="160" cy="460" r="1.5" fill="#b2ff59" opacity="0.35" filter="url(#ns-blur3)"/>
  <circle cx="320" cy="460" r="1.5" fill="#b2ff59" opacity="0.35" filter="url(#ns-blur3)"/>
  <circle cx="480" cy="460" r="1.5" fill="#b2ff59" opacity="0.35" filter="url(#ns-blur3)"/>
  <circle cx="640" cy="460" r="1.5" fill="#b2ff59" opacity="0.35" filter="url(#ns-blur3)"/>

  <!-- Title -->
  <text x="400" y="595" text-anchor="middle" font-family="Georgia, serif" font-size="40" fill="#ffffff" letter-spacing="4" opacity="0.9" filter="url(#ns-glow)">NEURAL SYNC</text>

  <!-- Subtitle -->
  <text x="400" y="638" text-anchor="middle" font-family="Arial, sans-serif" font-size="13" fill="#aed581" letter-spacing="6" opacity="0.65">BRAINWAVE ALIGNMENT</text>

  <!-- Decorative line -->
  <line x1="300" y1="668" x2="500" y2="668" stroke="#64dd17" stroke-width="0.5" opacity="0.4"/>
  <circle cx="400" cy="668" r="2" fill="#76ff03" opacity="0.5"/>

  <!-- Branding -->
  <text x="400" y="708" text-anchor="middle" font-family="Arial, sans-serif" font-size="11" fill="#33691e" letter-spacing="4" opacity="0.5">HEMISYNC.ORG</text>
</svg>